<svg width="382" height="111" viewBox="0 0 382 111" fill="none" xmlns="http://www.w3.org/2000/svg">
<path d="M103.238 38.05L99.9933 37.115V36.84L109.398 33.925H109.453L98.8383 70.39H99.2783L102.578 63.735C105.365 58.0883 107.748 53.9633 109.728 51.36C111.708 48.72 113.652 47.4 115.558 47.4C116.805 47.4 117.868 47.9133 118.748 48.94C119.665 49.93 120.123 51.1767 120.123 52.68C120.123 56.1633 116.787 59.2617 110.113 61.975V62.085L110.278 62.91C111.158 66.6133 112.038 69.1983 112.918 70.665C113.835 72.095 114.77 72.81 115.723 72.81C116.383 72.81 117.025 72.5167 117.648 71.93C118.308 71.3067 119.207 70.1333 120.343 68.41H120.838C119.518 70.3533 118.455 71.8383 117.648 72.865C116.878 73.8917 116.017 74.79 115.063 75.56C114.147 76.2933 113.212 76.66 112.258 76.66C110.828 76.66 109.637 75.7067 108.683 73.8C107.73 71.8567 106.795 68.5933 105.878 64.01L105.658 62.965C109.178 62.0117 111.69 60.875 113.193 59.555C114.697 58.235 115.448 56.585 115.448 54.605C115.448 53.4317 115.192 52.5333 114.678 51.91C114.202 51.2867 113.578 50.975 112.808 50.975C111.598 50.975 110.242 52.0383 108.738 54.165C107.272 56.255 105.328 59.7567 102.908 64.67L97.3533 76H92.3483L103.238 38.05ZM145.852 57.025C145.852 60.3983 145.063 63.6067 143.487 66.65C141.947 69.6567 139.912 72.0767 137.382 73.91C134.888 75.7433 132.303 76.66 129.627 76.66C127.17 76.66 125.227 75.8167 123.797 74.13C122.367 72.4067 121.652 70.005 121.652 66.925C121.652 63.515 122.44 60.3067 124.017 57.3C125.593 54.2933 127.647 51.8917 130.177 50.095C132.707 48.2983 135.292 47.4 137.932 47.4C140.352 47.4 142.277 48.2433 143.707 49.93C145.137 51.58 145.852 53.945 145.852 57.025ZM126.712 67.42C126.712 70.2433 127.133 72.3517 127.977 73.745C128.857 75.1017 129.938 75.78 131.222 75.78C132.872 75.78 134.43 74.845 135.897 72.975C137.363 71.105 138.537 68.6667 139.417 65.66C140.333 62.6533 140.792 59.5367 140.792 56.31C140.792 53.5233 140.388 51.4883 139.582 50.205C138.775 48.885 137.748 48.225 136.502 48.225C134.815 48.225 133.22 49.1417 131.717 50.975C130.213 52.7717 129.003 55.155 128.087 58.125C127.17 61.095 126.712 64.1933 126.712 67.42ZM161.677 40.745L159.697 47.73C160.65 47.51 161.603 47.4 162.557 47.4C165.343 47.4 167.58 48.28 169.267 50.04C170.953 51.8 171.797 54.275 171.797 57.465C171.797 60.6917 171.008 63.79 169.432 66.76C167.855 69.73 165.783 72.1317 163.217 73.965C160.687 75.7617 158.028 76.66 155.242 76.66C154.325 76.66 153.06 76.55 151.447 76.33L148.477 87H143.417L153.812 50.81C151.942 51.91 149.833 53.5233 147.487 55.65H146.992C149.265 53.23 151.612 51.3233 154.032 49.93L156.672 40.745H161.677ZM152.107 74.13C153.537 75.23 155.058 75.78 156.672 75.78C158.468 75.78 160.137 75.0283 161.677 73.525C163.253 71.985 164.5 69.9317 165.417 67.365C166.37 64.7617 166.847 61.9383 166.847 58.895C166.847 55.595 166.223 53.0833 164.977 51.36C163.767 49.6 162.098 48.72 159.972 48.72H159.367L152.107 74.13ZM171.134 71.93C171.134 71.1967 171.373 70.5733 171.849 70.06C172.289 69.51 172.858 69.07 173.554 68.74C174.031 71.0867 174.801 72.8833 175.864 74.13C176.964 75.3767 178.303 76 179.879 76C181.053 76 182.134 75.67 183.124 75.01C184.151 74.35 184.976 73.3967 185.599 72.15C186.223 70.9033 186.534 69.4367 186.534 67.75C186.534 65.55 186.021 63.8633 184.994 62.69C183.968 61.48 182.721 60.875 181.254 60.875H178.339V60.27H182.629C184.316 60.27 185.746 59.5917 186.919 58.235C188.093 56.8417 188.679 55.0633 188.679 52.9C188.679 51.3233 188.349 50.1133 187.689 49.27C187.029 48.4267 186.131 48.005 184.994 48.005C183.418 48.005 181.823 48.7933 180.209 50.37C178.596 51.9467 177.184 53.9817 175.974 56.475H175.699L177.679 49.325C180.319 48.0417 182.941 47.4 185.544 47.4C187.964 47.4 189.834 47.895 191.154 48.885C192.474 49.8383 193.134 51.1033 193.134 52.68C193.134 54.33 192.419 55.7783 190.989 57.025C189.559 58.2717 187.909 59.1333 186.039 59.61V59.72C187.433 60.05 188.734 60.7283 189.944 61.755C191.154 62.7817 191.759 64.1933 191.759 65.99C191.759 67.6767 191.173 69.3633 189.999 71.05C188.826 72.7 187.249 74.0567 185.269 75.12C183.289 76.1467 181.144 76.66 178.834 76.66C176.598 76.66 174.746 76.2017 173.279 75.285C171.849 74.3317 171.134 73.2133 171.134 71.93ZM194.802 55.65C196.709 52.9733 198.322 50.9383 199.642 49.545C200.962 48.115 202.245 47.4 203.492 47.4C204.225 47.4 204.83 47.6933 205.307 48.28C205.784 48.8667 206.022 49.765 206.022 50.975C206.022 52.2217 205.765 53.6883 205.252 55.375L201.237 68.63H201.292L219.607 48.06H222.357L216.692 67.365C216.215 69.015 215.977 70.2617 215.977 71.105C215.977 72.2417 216.344 72.81 217.077 72.81C217.59 72.81 218.104 72.4983 218.617 71.875C219.167 71.2517 220.047 70.0967 221.257 68.41H221.752C219.919 71.05 218.342 73.085 217.022 74.515C215.739 75.945 214.492 76.66 213.282 76.66C212.549 76.66 211.944 76.3483 211.467 75.725C210.99 75.065 210.752 74.075 210.752 72.755C210.752 71.215 211.045 69.4733 211.632 67.53L215.647 54H215.537L193.977 77.375H193.702L200.412 54.935C200.705 53.945 200.852 53.1017 200.852 52.405C200.852 51.415 200.522 50.92 199.862 50.92C199.312 50.92 198.725 51.2683 198.102 51.965C197.479 52.6617 196.544 53.89 195.297 55.65H194.802ZM228.664 54.935C228.957 53.945 229.104 53.1017 229.104 52.405C229.104 51.415 228.774 50.92 228.114 50.92C227.564 50.92 226.977 51.2683 226.354 51.965C225.731 52.6617 224.796 53.89 223.549 55.65H223.054C224.961 52.9733 226.574 50.9383 227.894 49.545C229.214 48.115 230.497 47.4 231.744 47.4C232.477 47.4 233.082 47.6933 233.559 48.28C234.036 48.8667 234.274 49.765 234.274 50.975C234.274 52.185 234.036 53.6333 233.559 55.32L232.129 60.27H241.644L245.164 48.06H250.224L244.614 67.365C244.137 69.0517 243.899 70.3167 243.899 71.16C243.899 72.26 244.247 72.81 244.944 72.81C245.457 72.81 245.971 72.5167 246.484 71.93C247.034 71.3067 247.932 70.1333 249.179 68.41H249.674C247.877 70.9767 246.301 72.9933 244.944 74.46C243.624 75.9267 242.377 76.66 241.204 76.66C240.434 76.66 239.811 76.3483 239.334 75.725C238.857 75.1017 238.619 74.1117 238.619 72.755C238.619 71.325 238.931 69.5467 239.554 67.42L241.424 60.875H231.964L227.564 76H222.504L228.664 54.935ZM258.464 72.48C259.124 72.48 259.82 72.095 260.554 71.325C261.287 70.5183 262.112 69.3267 263.029 67.75C263.982 66.1367 265.339 63.6983 267.099 60.435L272.049 51.305C270.912 50.2783 269.995 49.545 269.299 49.105C268.602 48.6283 267.85 48.39 267.044 48.39C265.43 48.39 263.744 49.3617 261.984 51.305C260.224 53.2483 258.739 55.7233 257.529 58.73C256.355 61.7367 255.769 64.6883 255.769 67.585C255.769 69.2717 256.025 70.5183 256.539 71.325C257.089 72.095 257.73 72.48 258.464 72.48ZM250.654 68.905C250.654 65.7517 251.644 62.5067 253.624 59.17C255.64 55.7967 258.079 52.9917 260.939 50.755C263.835 48.5183 266.475 47.4 268.859 47.4C269.922 47.4 270.912 47.6017 271.829 48.005C272.782 48.4083 274.194 49.1233 276.064 50.15L277.879 47.51H278.154L272.489 67.365C272.012 69.0517 271.774 70.3167 271.774 71.16C271.774 72.26 272.122 72.81 272.819 72.81C273.295 72.81 273.809 72.4983 274.359 71.875C274.945 71.2517 275.844 70.0967 277.054 68.41H277.549C275.752 70.9767 274.175 72.9933 272.819 74.46C271.499 75.9267 270.252 76.66 269.079 76.66C268.345 76.66 267.74 76.3483 267.264 75.725C266.787 75.065 266.549 74.0567 266.549 72.7C266.549 71.1233 266.842 69.3633 267.429 67.42L270.894 55.595H270.399L267.649 60.71L265.889 64.01C264.202 67.2367 262.864 69.675 261.874 71.325C260.92 72.9383 259.949 74.24 258.959 75.23C258.005 76.1833 256.997 76.66 255.934 76.66C255.054 76.66 254.21 76.3483 253.404 75.725C252.597 75.1017 251.937 74.2033 251.424 73.03C250.91 71.8567 250.654 70.4817 250.654 68.905Z" fill="#9D0000"/>
<path d="M266.357 13.272C264.43 15.5404 264 21 264 21C264 21 263.517 15.5343 261.571 13.272C259.633 11.0176 255 10.5 255 10.5C255 10.5 259.638 9.92004 261.571 7.644C263.487 5.38971 264 0 264 0C264 0 264.46 5.38391 266.357 7.644C268.297 9.95596 273 10.5 273 10.5C273 10.5 268.302 10.9817 266.357 13.272Z" fill="#9D0000"/>
<path d="M315.56 28.984C312.241 24.8792 311.5 15 311.5 15C311.5 15 310.668 24.8903 307.317 28.984C303.979 33.0634 296 34 296 34C296 34 303.987 35.0494 307.317 39.168C310.616 43.2472 311.5 53 311.5 53C311.5 53 312.293 43.2577 315.56 39.168C318.901 34.9845 327 34 327 34C327 34 318.91 33.1283 315.56 28.984Z" fill="#9D0000"/>
</svg>
