<svg width="641" height="99" viewBox="0 0 641 99" fill="none" xmlns="http://www.w3.org/2000/svg">
<path d="M119.026 56.025C119.026 59.3983 118.238 62.6067 116.661 65.65C115.121 68.6567 113.086 71.0767 110.556 72.91C108.063 74.7433 105.478 75.66 102.801 75.66C100.344 75.66 98.401 74.8167 96.971 73.13C95.541 71.4067 94.826 69.005 94.826 65.925C94.826 62.515 95.6143 59.3067 97.191 56.3C98.7676 53.2933 100.821 50.8917 103.351 49.095C105.881 47.2983 108.466 46.4 111.106 46.4C113.526 46.4 115.451 47.2433 116.881 48.93C118.311 50.58 119.026 52.945 119.026 56.025ZM99.886 66.42C99.886 69.2433 100.308 71.3517 101.151 72.745C102.031 74.1017 103.113 74.78 104.396 74.78C106.046 74.78 107.604 73.845 109.071 71.975C110.538 70.105 111.711 67.6667 112.591 64.66C113.508 61.6533 113.966 58.5367 113.966 55.31C113.966 52.5233 113.563 50.4883 112.756 49.205C111.949 47.885 110.923 47.225 109.676 47.225C107.989 47.225 106.394 48.1417 104.891 49.975C103.388 51.7717 102.178 54.155 101.261 57.125C100.344 60.095 99.886 63.1933 99.886 66.42ZM126.106 53.935C126.399 52.945 126.546 52.1017 126.546 51.405C126.546 50.415 126.216 49.92 125.556 49.92C125.006 49.92 124.419 50.2683 123.796 50.965C123.173 51.6617 122.238 52.89 120.991 54.65H120.496C122.403 51.9733 124.016 49.9383 125.336 48.545C126.656 47.115 127.939 46.4 129.186 46.4C129.919 46.4 130.524 46.6933 131.001 47.28C131.478 47.8667 131.716 48.765 131.716 49.975C131.716 51.185 131.459 52.6333 130.946 54.32L126.491 69.39H126.931L130.231 62.735C132.871 57.3817 135.254 53.33 137.381 50.58C139.508 47.7933 141.561 46.4 143.541 46.4C144.531 46.4 145.338 46.7483 145.961 47.445C146.584 48.105 146.896 49.1317 146.896 50.525C146.896 51.8083 146.603 53.385 146.016 55.255L142.606 66.365C142.129 67.8317 141.891 69.0783 141.891 70.105C141.891 70.6917 141.983 71.1317 142.166 71.425C142.386 71.6817 142.643 71.81 142.936 71.81C143.449 71.81 143.963 71.535 144.476 70.985C144.989 70.3983 145.888 69.2067 147.171 67.41H147.666C145.869 70.0133 144.311 72.0483 142.991 73.515C141.671 74.945 140.406 75.66 139.196 75.66C138.463 75.66 137.839 75.3483 137.326 74.725C136.849 74.065 136.611 73.075 136.611 71.755C136.611 70.3617 136.923 68.62 137.546 66.53L141.176 54.705C141.506 53.605 141.671 52.725 141.671 52.065C141.671 50.8183 141.176 50.195 140.186 50.195C139.086 50.195 137.821 51.185 136.391 53.165C134.961 55.1083 133.091 58.4267 130.781 63.12L124.896 75H119.891L126.106 53.935ZM146.104 73.075C146.104 72.4517 146.196 71.8283 146.379 71.205H146.929C149.092 71.205 151.054 70.325 152.814 68.565C154.611 66.7683 156.022 64.1283 157.049 60.645C158.076 57.125 158.589 52.9083 158.589 47.995V47.06H173.879L168.379 66.365C167.902 68.0517 167.664 69.3167 167.664 70.16C167.664 71.26 168.012 71.81 168.709 71.81C169.186 71.81 169.699 71.4983 170.249 70.875C170.836 70.2517 171.734 69.0967 172.944 67.41H173.439C171.642 69.9767 170.066 71.9933 168.709 73.46C167.389 74.9267 166.124 75.66 164.914 75.66C164.181 75.66 163.576 75.3483 163.099 74.725C162.659 74.1017 162.439 73.1117 162.439 71.755C162.439 70.215 162.732 68.4367 163.319 66.42L168.709 47.665H162.054L157.489 61.085C155.729 66.3283 154.061 70.0683 152.484 72.305C150.907 74.5417 149.459 75.66 148.139 75.66C147.516 75.66 147.021 75.44 146.654 75C146.287 74.5233 146.104 73.8817 146.104 73.075ZM182.17 71.48C182.83 71.48 183.527 71.095 184.26 70.325C184.994 69.5183 185.819 68.3267 186.735 66.75C187.689 65.1367 189.045 62.6983 190.805 59.435L195.755 50.305C194.619 49.2783 193.702 48.545 193.005 48.105C192.309 47.6283 191.557 47.39 190.75 47.39C189.137 47.39 187.45 48.3617 185.69 50.305C183.93 52.2483 182.445 54.7233 181.235 57.73C180.062 60.7367 179.475 63.6883 179.475 66.585C179.475 68.2717 179.732 69.5183 180.245 70.325C180.795 71.095 181.437 71.48 182.17 71.48ZM174.36 67.905C174.36 64.7517 175.35 61.5067 177.33 58.17C179.347 54.7967 181.785 51.9917 184.645 49.755C187.542 47.5183 190.182 46.4 192.565 46.4C193.629 46.4 194.619 46.6017 195.535 47.005C196.489 47.4083 197.9 48.1233 199.77 49.15L201.585 46.51H201.86L196.195 66.365C195.719 68.0517 195.48 69.3167 195.48 70.16C195.48 71.26 195.829 71.81 196.525 71.81C197.002 71.81 197.515 71.4983 198.065 70.875C198.652 70.2517 199.55 69.0967 200.76 67.41H201.255C199.459 69.9767 197.882 71.9933 196.525 73.46C195.205 74.9267 193.959 75.66 192.785 75.66C192.052 75.66 191.447 75.3483 190.97 74.725C190.494 74.065 190.255 73.0567 190.255 71.7C190.255 70.1233 190.549 68.3633 191.135 66.42L194.6 54.595H194.105L191.355 59.71L189.595 63.01C187.909 66.2367 186.57 68.675 185.58 70.325C184.627 71.9383 183.655 73.24 182.665 74.23C181.712 75.1833 180.704 75.66 179.64 75.66C178.76 75.66 177.917 75.3483 177.11 74.725C176.304 74.1017 175.644 73.2033 175.13 72.03C174.617 70.8567 174.36 69.4817 174.36 67.905ZM208.123 53.935C208.416 52.945 208.563 52.1017 208.563 51.405C208.563 50.415 208.233 49.92 207.573 49.92C207.023 49.92 206.436 50.2683 205.813 50.965C205.189 51.6617 204.254 52.89 203.008 54.65H202.513C204.419 51.9733 206.033 49.9383 207.353 48.545C208.673 47.115 209.956 46.4 211.203 46.4C211.936 46.4 212.523 46.6933 212.963 47.28C213.439 47.8667 213.678 48.7467 213.678 49.92C213.678 51.1667 213.421 52.6333 212.908 54.32L208.453 69.39H208.948L212.138 62.68C214.668 57.4 216.996 53.3667 219.123 50.58C221.249 47.7933 223.284 46.4 225.228 46.4C226.181 46.4 226.951 46.7483 227.538 47.445C228.124 48.105 228.418 49.15 228.418 50.58C228.418 51.9733 228.143 53.55 227.593 55.31L223.248 69.39H223.688L226.933 62.735C229.499 57.4183 231.828 53.3667 233.918 50.58C236.044 47.7933 238.079 46.4 240.023 46.4C240.976 46.4 241.746 46.7483 242.333 47.445C242.956 48.1417 243.268 49.205 243.268 50.635C243.268 51.8817 242.993 53.44 242.443 55.31L239.033 66.365C238.556 67.8317 238.318 69.0783 238.318 70.105C238.318 70.6917 238.409 71.1317 238.593 71.425C238.813 71.6817 239.069 71.81 239.363 71.81C239.876 71.81 240.389 71.535 240.903 70.985C241.416 70.3983 242.314 69.2067 243.598 67.41H244.093C242.296 70.0133 240.738 72.0483 239.418 73.515C238.098 74.945 236.833 75.66 235.623 75.66C234.889 75.66 234.266 75.3483 233.753 74.725C233.276 74.065 233.038 73.075 233.038 71.755C233.038 70.3617 233.349 68.62 233.973 66.53L237.658 54.705C237.988 53.6417 238.153 52.7983 238.153 52.175C238.153 50.855 237.639 50.195 236.613 50.195C235.549 50.195 234.321 51.1667 232.928 53.11C231.571 55.0167 229.756 58.3533 227.483 63.12L221.708 75H216.648L222.863 54.705C223.193 53.6417 223.358 52.7983 223.358 52.175C223.358 51.4783 223.211 50.9833 222.918 50.69C222.661 50.36 222.313 50.195 221.873 50.195C220.809 50.195 219.563 51.1667 218.133 53.11C216.739 55.0533 214.906 58.39 212.633 63.12L206.913 75H201.908L208.123 53.935ZM252.854 71.48C253.514 71.48 254.211 71.095 254.944 70.325C255.677 69.5183 256.502 68.3267 257.419 66.75C258.372 65.1367 259.729 62.6983 261.489 59.435L266.439 50.305C265.302 49.2783 264.386 48.545 263.689 48.105C262.992 47.6283 262.241 47.39 261.434 47.39C259.821 47.39 258.134 48.3617 256.374 50.305C254.614 52.2483 253.129 54.7233 251.919 57.73C250.746 60.7367 250.159 63.6883 250.159 66.585C250.159 68.2717 250.416 69.5183 250.929 70.325C251.479 71.095 252.121 71.48 252.854 71.48ZM245.044 67.905C245.044 64.7517 246.034 61.5067 248.014 58.17C250.031 54.7967 252.469 51.9917 255.329 49.755C258.226 47.5183 260.866 46.4 263.249 46.4C264.312 46.4 265.302 46.6017 266.219 47.005C267.172 47.4083 268.584 48.1233 270.454 49.15L272.269 46.51H272.544L266.879 66.365C266.402 68.0517 266.164 69.3167 266.164 70.16C266.164 71.26 266.512 71.81 267.209 71.81C267.686 71.81 268.199 71.4983 268.749 70.875C269.336 70.2517 270.234 69.0967 271.444 67.41H271.939C270.142 69.9767 268.566 71.9933 267.209 73.46C265.889 74.9267 264.642 75.66 263.469 75.66C262.736 75.66 262.131 75.3483 261.654 74.725C261.177 74.065 260.939 73.0567 260.939 71.7C260.939 70.1233 261.232 68.3633 261.819 66.42L265.284 54.595H264.789L262.039 59.71L260.279 63.01C258.592 66.2367 257.254 68.675 256.264 70.325C255.311 71.9383 254.339 73.24 253.349 74.23C252.396 75.1833 251.387 75.66 250.324 75.66C249.444 75.66 248.601 75.3483 247.794 74.725C246.987 74.1017 246.327 73.2033 245.814 72.03C245.301 70.8567 245.044 69.4817 245.044 67.905ZM284.207 54.65C286.114 51.9733 287.727 49.9383 289.047 48.545C290.367 47.115 291.65 46.4 292.897 46.4C293.63 46.4 294.235 46.6933 294.712 47.28C295.189 47.8667 295.427 48.765 295.427 49.975C295.427 51.2217 295.17 52.6883 294.657 54.375L290.642 67.63H290.697L309.012 47.06H311.762L306.097 66.365C305.62 68.015 305.382 69.2617 305.382 70.105C305.382 71.2417 305.749 71.81 306.482 71.81C306.995 71.81 307.509 71.4983 308.022 70.875C308.572 70.2517 309.452 69.0967 310.662 67.41H311.157C309.324 70.05 307.747 72.085 306.427 73.515C305.144 74.945 303.897 75.66 302.687 75.66C301.954 75.66 301.349 75.3483 300.872 74.725C300.395 74.065 300.157 73.075 300.157 71.755C300.157 70.215 300.45 68.4733 301.037 66.53L305.052 53H304.942L283.382 76.375H283.107L289.817 53.935C290.11 52.945 290.257 52.1017 290.257 51.405C290.257 50.415 289.927 49.92 289.267 49.92C288.717 49.92 288.13 50.2683 287.507 50.965C286.884 51.6617 285.949 52.89 284.702 54.65H284.207ZM321.49 79.51C321.49 80.3167 321.875 81.1967 322.645 82.15C323.378 83.1033 324.331 83.8917 325.505 84.515C326.715 85.175 327.961 85.505 329.245 85.505C330.895 85.505 332.343 84.9 333.59 83.69C334.836 82.48 335.863 80.4817 336.67 77.695L343.38 54.595H342.885L340.135 59.71L338.705 62.46C336.651 66.31 335.111 69.0783 334.085 70.765C333.095 72.4517 332.068 73.735 331.005 74.615C330.418 75.0917 329.758 75.4583 329.025 75.715C328.291 75.9717 327.283 76.265 326 76.595C324.46 76.9617 323.323 77.3283 322.59 77.695C321.856 78.0617 321.49 78.6667 321.49 79.51ZM316.87 79.675C316.87 78.4283 317.548 77.5667 318.905 77.09C320.261 76.65 322.131 76.32 324.515 76.1C326.018 75.9533 327.045 75.8067 327.595 75.66V75.495C326.348 75.2017 325.285 74.3767 324.405 73.02C323.561 71.6633 323.14 69.9583 323.14 67.905C323.14 64.7517 324.13 61.5067 326.11 58.17C328.126 54.7967 330.565 51.9917 333.425 49.755C336.321 47.5183 338.961 46.4 341.345 46.4C342.408 46.4 343.38 46.6017 344.26 47.005C345.14 47.3717 346.57 48.0867 348.55 49.15L350.365 46.51H350.64L343.875 70.05C342.335 75.3667 340.19 79.3817 337.44 82.095C334.726 84.845 331.665 86.22 328.255 86.22C326.605 86.22 324.881 85.9083 323.085 85.285C321.325 84.6983 319.858 83.8917 318.685 82.865C317.475 81.875 316.87 80.8117 316.87 79.675ZM328.255 66.585C328.255 68.2717 328.511 69.5183 329.025 70.325C329.575 71.095 330.216 71.48 330.95 71.48C331.61 71.48 332.288 71.095 332.985 70.325C333.718 69.5183 334.561 68.3083 335.515 66.695C336.505 65.045 337.861 62.625 339.585 59.435L344.48 50.305C343.416 49.315 342.518 48.5817 341.785 48.105C341.088 47.6283 340.318 47.39 339.475 47.39C337.898 47.39 336.23 48.38 334.47 50.36C332.71 52.3033 331.225 54.7783 330.015 57.785C328.841 60.755 328.255 63.6883 328.255 66.585ZM374.153 56.025C374.153 59.3983 373.365 62.6067 371.788 65.65C370.248 68.6567 368.213 71.0767 365.683 72.91C363.19 74.7433 360.605 75.66 357.928 75.66C355.471 75.66 353.528 74.8167 352.098 73.13C350.668 71.4067 349.953 69.005 349.953 65.925C349.953 62.515 350.741 59.3067 352.318 56.3C353.895 53.2933 355.948 50.8917 358.478 49.095C361.008 47.2983 363.593 46.4 366.233 46.4C368.653 46.4 370.578 47.2433 372.008 48.93C373.438 50.58 374.153 52.945 374.153 56.025ZM355.013 66.42C355.013 69.2433 355.435 71.3517 356.278 72.745C357.158 74.1017 358.24 74.78 359.523 74.78C361.173 74.78 362.731 73.845 364.198 71.975C365.665 70.105 366.838 67.6667 367.718 64.66C368.635 61.6533 369.093 58.5367 369.093 55.31C369.093 52.5233 368.69 50.4883 367.883 49.205C367.076 47.885 366.05 47.225 364.803 47.225C363.116 47.225 361.521 48.1417 360.018 49.975C358.515 51.7717 357.305 54.155 356.388 57.125C355.471 60.095 355.013 63.1933 355.013 66.42ZM375.513 66.475C375.513 63.2117 376.338 60.0217 377.988 56.905C379.638 53.7883 381.728 51.2583 384.258 49.315C386.825 47.3717 389.355 46.4 391.848 46.4C393.241 46.4 394.286 46.7117 394.983 47.335C395.716 47.9583 396.083 48.765 396.083 49.755C396.083 50.4883 395.881 51.1483 395.478 51.735C395.111 52.3217 394.69 52.7617 394.213 53.055C393.736 51.4783 393.058 50.2133 392.178 49.26C391.335 48.3067 390.363 47.83 389.263 47.83C387.76 47.83 386.33 48.5817 384.973 50.085C383.616 51.5883 382.535 53.5867 381.728 56.08C380.921 58.5367 380.518 61.1217 380.518 63.835C380.518 66.5483 381.013 68.565 382.003 69.885C383.03 71.205 384.386 71.865 386.073 71.865C387.393 71.865 388.658 71.315 389.868 70.215C391.078 69.115 392.325 67.2817 393.608 64.715H394.048C390.565 72.0117 386.715 75.66 382.498 75.66C380.408 75.66 378.721 74.8533 377.438 73.24C376.155 71.6267 375.513 69.3717 375.513 66.475ZM402.126 53.935C402.42 52.945 402.566 52.1017 402.566 51.405C402.566 50.415 402.236 49.92 401.576 49.92C401.026 49.92 400.44 50.2683 399.816 50.965C399.193 51.6617 398.258 52.89 397.011 54.65H396.516C398.423 51.9733 400.036 49.9383 401.356 48.545C402.676 47.115 403.96 46.4 405.206 46.4C405.94 46.4 406.526 46.6933 406.966 47.28C407.443 47.8667 407.681 48.7467 407.681 49.92C407.681 51.1667 407.425 52.6333 406.911 54.32L402.456 69.39H402.951L406.141 62.68C408.671 57.4 411 53.3667 413.126 50.58C415.253 47.7933 417.288 46.4 419.231 46.4C420.185 46.4 420.955 46.7483 421.541 47.445C422.128 48.105 422.421 49.15 422.421 50.58C422.421 51.9733 422.146 53.55 421.596 55.31L417.251 69.39H417.691L420.936 62.735C423.503 57.4183 425.831 53.3667 427.921 50.58C430.048 47.7933 432.083 46.4 434.026 46.4C434.98 46.4 435.75 46.7483 436.336 47.445C436.96 48.1417 437.271 49.205 437.271 50.635C437.271 51.8817 436.996 53.44 436.446 55.31L433.036 66.365C432.56 67.8317 432.321 69.0783 432.321 70.105C432.321 70.6917 432.413 71.1317 432.596 71.425C432.816 71.6817 433.073 71.81 433.366 71.81C433.88 71.81 434.393 71.535 434.906 70.985C435.42 70.3983 436.318 69.2067 437.601 67.41H438.096C436.3 70.0133 434.741 72.0483 433.421 73.515C432.101 74.945 430.836 75.66 429.626 75.66C428.893 75.66 428.27 75.3483 427.756 74.725C427.28 74.065 427.041 73.075 427.041 71.755C427.041 70.3617 427.353 68.62 427.976 66.53L431.661 54.705C431.991 53.6417 432.156 52.7983 432.156 52.175C432.156 50.855 431.643 50.195 430.616 50.195C429.553 50.195 428.325 51.1667 426.931 53.11C425.575 55.0167 423.76 58.3533 421.486 63.12L415.711 75H410.651L416.866 54.705C417.196 53.6417 417.361 52.7983 417.361 52.175C417.361 51.4783 417.215 50.9833 416.921 50.69C416.665 50.36 416.316 50.195 415.876 50.195C414.813 50.195 413.566 51.1667 412.136 53.11C410.743 55.0533 408.91 58.39 406.636 63.12L400.916 75H395.911L402.126 53.935ZM446.858 71.48C447.518 71.48 448.214 71.095 448.948 70.325C449.681 69.5183 450.506 68.3267 451.423 66.75C452.376 65.1367 453.733 62.6983 455.493 59.435L460.443 50.305C459.306 49.2783 458.389 48.545 457.693 48.105C456.996 47.6283 456.244 47.39 455.438 47.39C453.824 47.39 452.138 48.3617 450.378 50.305C448.618 52.2483 447.133 54.7233 445.923 57.73C444.749 60.7367 444.163 63.6883 444.163 66.585C444.163 68.2717 444.419 69.5183 444.933 70.325C445.483 71.095 446.124 71.48 446.858 71.48ZM439.048 67.905C439.048 64.7517 440.038 61.5067 442.018 58.17C444.034 54.7967 446.473 51.9917 449.333 49.755C452.229 47.5183 454.869 46.4 457.253 46.4C458.316 46.4 459.306 46.6017 460.223 47.005C461.176 47.4083 462.588 48.1233 464.458 49.15L466.273 46.51H466.548L460.883 66.365C460.406 68.0517 460.168 69.3167 460.168 70.16C460.168 71.26 460.516 71.81 461.213 71.81C461.689 71.81 462.203 71.4983 462.753 70.875C463.339 70.2517 464.238 69.0967 465.448 67.41H465.943C464.146 69.9767 462.569 71.9933 461.213 73.46C459.893 74.9267 458.646 75.66 457.473 75.66C456.739 75.66 456.134 75.3483 455.658 74.725C455.181 74.065 454.943 73.0567 454.943 71.7C454.943 70.1233 455.236 68.3633 455.823 66.42L459.288 54.595H458.793L456.043 59.71L454.283 63.01C452.596 66.2367 451.258 68.675 450.268 70.325C449.314 71.9383 448.343 73.24 447.353 74.23C446.399 75.1833 445.391 75.66 444.328 75.66C443.448 75.66 442.604 75.3483 441.798 74.725C440.991 74.1017 440.331 73.2033 439.818 72.03C439.304 70.8567 439.048 69.4817 439.048 67.905ZM467.31 65.705C467.31 62.515 468.135 59.435 469.785 56.465C471.435 53.4583 473.543 51.0383 476.11 49.205C478.677 47.335 481.243 46.4 483.81 46.4C485.79 46.4 487.33 46.84 488.43 47.72C489.567 48.6 490.135 49.81 490.135 51.35C490.135 53.1467 489.42 54.6867 487.99 55.97C486.597 57.2167 484.928 58.0967 482.985 58.61V58.72C484.562 59.16 485.882 59.8567 486.945 60.81C488.008 61.7633 488.54 63.0833 488.54 64.77C488.54 66.4933 487.953 68.1983 486.78 69.885C485.643 71.5717 484.122 72.965 482.215 74.065C480.308 75.1283 478.273 75.66 476.11 75.66C473.397 75.66 471.252 74.78 469.675 73.02C468.098 71.26 467.31 68.8217 467.31 65.705ZM472.26 66.64C472.26 69.39 472.7 71.4617 473.58 72.855C474.497 74.2483 475.725 74.945 477.265 74.945C478.988 74.945 480.418 74.1567 481.555 72.58C482.728 71.0033 483.315 68.9683 483.315 66.475C483.315 64.2017 482.802 62.5333 481.775 61.47C480.748 60.4067 479.355 59.875 477.595 59.875H473.03C472.517 62.1117 472.26 64.3667 472.26 66.64ZM479.575 59.27C481.372 59.27 482.82 58.5917 483.92 57.235C485.057 55.8417 485.625 53.99 485.625 51.68C485.625 50.1033 485.35 48.9483 484.8 48.215C484.287 47.445 483.59 47.06 482.71 47.06C480.803 47.06 478.952 48.2333 477.155 50.58C475.395 52.89 474.075 55.7867 473.195 59.27H479.575ZM501.266 37.05L498.021 36.115V35.84L507.426 32.925H507.481L496.866 69.39H497.306L500.606 62.735C503.393 57.0883 505.776 52.9633 507.756 50.36C509.736 47.72 511.679 46.4 513.586 46.4C514.833 46.4 515.896 46.9133 516.776 47.94C517.693 48.93 518.151 50.1767 518.151 51.68C518.151 55.1633 514.814 58.2617 508.141 60.975V61.085L508.306 61.91C509.186 65.6133 510.066 68.1983 510.946 69.665C511.863 71.095 512.798 71.81 513.751 71.81C514.411 71.81 515.053 71.5167 515.676 70.93C516.336 70.3067 517.234 69.1333 518.371 67.41H518.866C517.546 69.3533 516.483 70.8383 515.676 71.865C514.906 72.8917 514.044 73.79 513.091 74.56C512.174 75.2933 511.239 75.66 510.286 75.66C508.856 75.66 507.664 74.7067 506.711 72.8C505.758 70.8567 504.823 67.5933 503.906 63.01L503.686 61.965C507.206 61.0117 509.718 59.875 511.221 58.555C512.724 57.235 513.476 55.585 513.476 53.605C513.476 52.4317 513.219 51.5333 512.706 50.91C512.229 50.2867 511.606 49.975 510.836 49.975C509.626 49.975 508.269 51.0383 506.766 53.165C505.299 55.255 503.356 58.7567 500.936 63.67L495.381 75H490.376L501.266 37.05ZM527.317 71.48C527.977 71.48 528.673 71.095 529.407 70.325C530.14 69.5183 530.965 68.3267 531.882 66.75C532.835 65.1367 534.192 62.6983 535.952 59.435L540.902 50.305C539.765 49.2783 538.848 48.545 538.152 48.105C537.455 47.6283 536.703 47.39 535.897 47.39C534.283 47.39 532.597 48.3617 530.837 50.305C529.077 52.2483 527.592 54.7233 526.382 57.73C525.208 60.7367 524.622 63.6883 524.622 66.585C524.622 68.2717 524.878 69.5183 525.392 70.325C525.942 71.095 526.583 71.48 527.317 71.48ZM519.507 67.905C519.507 64.7517 520.497 61.5067 522.477 58.17C524.493 54.7967 526.932 51.9917 529.792 49.755C532.688 47.5183 535.328 46.4 537.712 46.4C538.775 46.4 539.765 46.6017 540.682 47.005C541.635 47.4083 543.047 48.1233 544.917 49.15L546.732 46.51H547.007L541.342 66.365C540.865 68.0517 540.627 69.3167 540.627 70.16C540.627 71.26 540.975 71.81 541.672 71.81C542.148 71.81 542.662 71.4983 543.212 70.875C543.798 70.2517 544.697 69.0967 545.907 67.41H546.402C544.605 69.9767 543.028 71.9933 541.672 73.46C540.352 74.9267 539.105 75.66 537.932 75.66C537.198 75.66 536.593 75.3483 536.117 74.725C535.64 74.065 535.402 73.0567 535.402 71.7C535.402 70.1233 535.695 68.3633 536.282 66.42L539.747 54.595H539.252L536.502 59.71L534.742 63.01C533.055 66.2367 531.717 68.675 530.727 70.325C529.773 71.9383 528.802 73.24 527.812 74.23C526.858 75.1833 525.85 75.66 524.787 75.66C523.907 75.66 523.063 75.3483 522.257 74.725C521.45 74.1017 520.79 73.2033 520.277 72.03C519.763 70.8567 519.507 69.4817 519.507 67.905Z" fill="#9D0000"/>
<path d="M87.3571 13.272C85.4304 15.5404 85 21 85 21C85 21 84.5169 15.5343 82.5714 13.272C80.6328 11.0176 76 10.5 76 10.5C76 10.5 80.6376 9.92004 82.5714 7.644C84.4867 5.38971 85 0 85 0C85 0 85.4605 5.38391 87.3571 7.644C89.2973 9.95596 94 10.5 94 10.5C94 10.5 89.3025 10.9817 87.3571 13.272Z" fill="#9D0000"/>
<path d="M593.56 74.984C590.241 70.8792 589.5 61 589.5 61C589.5 61 588.668 70.8903 585.317 74.984C581.979 79.0634 574 80 574 80C574 80 581.987 81.0494 585.317 85.168C588.616 89.2472 589.5 99 589.5 99C589.5 99 590.293 89.2577 593.56 85.168C596.901 80.9845 605 80 605 80C605 80 596.91 79.1283 593.56 74.984Z" fill="#9D0000"/>
</svg>
