<svg width="741" height="146" viewBox="0 0 741 146" fill="none" xmlns="http://www.w3.org/2000/svg">
<path d="M161.624 51.685H161.789L166.794 90.625L168.939 91.725V92H155.189V91.725L159.204 90.625L157.499 76.435H145.674C142.118 81.9717 140.339 85.8767 140.339 88.15C140.339 89.1033 140.614 89.8367 141.164 90.35C141.751 90.8633 142.613 91.2483 143.749 91.505L144.684 91.725V92H132.364V91.725L135.169 90.625L161.624 51.685ZM157.444 75.775L155.739 61.42L147.599 73.52C147.123 74.18 146.628 74.9317 146.114 75.775H157.444ZM182.395 54.05L179.26 53.115V52.84L190.315 49.485H190.37L179.865 85.73H180.305L182.835 80.395C185.548 74.7117 187.968 70.4583 190.095 67.635C192.222 64.8117 194.33 63.4 196.42 63.4C197.703 63.4 198.785 63.895 199.665 64.885C200.582 65.8383 201.04 67.0483 201.04 68.515C201.04 70.3117 200.27 71.9067 198.73 73.3C197.19 74.6567 194.862 76.0133 191.745 77.37V77.48L191.855 78.195C192.405 81.715 193.138 84.2267 194.055 85.73C194.972 87.1967 195.98 87.93 197.08 87.93C197.74 87.93 198.363 87.6733 198.95 87.16C199.573 86.6467 200.362 85.73 201.315 84.41H201.81C199.977 87.0133 198.327 89.03 196.86 90.46C195.43 91.89 193.927 92.605 192.35 92.605C190.7 92.605 189.398 91.5967 188.445 89.58C187.528 87.5633 186.813 84.355 186.3 79.955L186.19 78.965C189.197 78.195 191.397 77.1867 192.79 75.94C194.22 74.6567 194.935 73.0983 194.935 71.265C194.935 70.2017 194.697 69.395 194.22 68.845C193.78 68.2583 193.212 67.965 192.515 67.965C191.342 67.965 190.04 69.0467 188.61 71.21C187.217 73.3367 185.31 76.9667 182.89 82.1L178.27 92H171.505L182.395 54.05ZM207.75 71.705C208.043 70.715 208.19 69.89 208.19 69.23C208.19 68.2767 207.86 67.8 207.2 67.8C206.65 67.8 206.081 68.1117 205.495 68.735C204.908 69.3217 204.101 70.2933 203.075 71.65H202.58C204.486 69.0467 206.155 67.03 207.585 65.6C209.051 64.1333 210.518 63.4 211.985 63.4C212.865 63.4 213.58 63.73 214.13 64.39C214.716 65.05 215.01 66.0767 215.01 67.47C215.01 68.6433 214.735 70.2017 214.185 72.145L210.17 85.73H210.665L213.14 80.285C215.67 74.7117 218.035 70.5133 220.235 67.69C222.435 64.83 224.561 63.4 226.615 63.4C227.678 63.4 228.54 63.7667 229.2 64.5C229.86 65.2333 230.19 66.37 230.19 67.91C230.19 69.34 229.915 70.935 229.365 72.695L225.35 85.785L225.405 85.73H225.845L228.32 80.395C230.923 74.7483 233.306 70.5133 235.47 67.69C237.67 64.83 239.796 63.4 241.85 63.4C242.95 63.4 243.83 63.785 244.49 64.555C245.15 65.2883 245.48 66.425 245.48 67.965C245.48 69.4317 245.205 71.0083 244.655 72.695L241.52 82.76C241.08 84.08 240.86 85.1983 240.86 86.115C240.86 87.325 241.245 87.93 242.015 87.93C242.491 87.93 242.968 87.6917 243.445 87.215C243.921 86.7017 244.691 85.7667 245.755 84.41H246.25C244.27 87.0867 242.583 89.14 241.19 90.57C239.833 91.9633 238.458 92.66 237.065 92.66C236.148 92.66 235.378 92.2933 234.755 91.56C234.168 90.8267 233.875 89.7083 233.875 88.205C233.875 86.7383 234.186 85.015 234.81 83.035L238.275 72.145C238.531 71.3383 238.66 70.6417 238.66 70.055C238.66 68.9183 238.22 68.35 237.34 68.35C236.35 68.35 235.213 69.285 233.93 71.155C232.683 72.9883 230.996 76.215 228.87 80.835L223.7 92H216.88L223.095 72.145C223.351 71.3383 223.48 70.6417 223.48 70.055C223.48 68.9183 223.04 68.35 222.16 68.35C221.133 68.35 219.978 69.3033 218.695 71.21C217.411 73.08 215.725 76.2883 213.635 80.835L208.52 92H201.81L207.75 71.705ZM237.585 99.92C237.585 99.1133 237.86 98.3617 238.41 97.665C238.96 96.9683 239.675 96.3817 240.555 95.905C241.105 97.555 241.911 98.9117 242.975 99.975C244.038 101.075 245.193 101.625 246.44 101.625C248.273 101.625 249.831 100.562 251.115 98.435C252.398 96.3083 253.351 93.5583 253.975 90.185C254.598 86.8117 254.91 83.2733 254.91 79.57C254.91 76.16 254.58 73.355 253.92 71.155C253.26 68.9183 252.398 67.8 251.335 67.8C250.785 67.8 250.216 68.075 249.63 68.625C249.08 69.175 248.236 70.1833 247.1 71.65H246.605C248.768 68.68 250.491 66.5717 251.775 65.325C253.058 64.0417 254.36 63.4 255.68 63.4C257.403 63.4 258.723 64.445 259.64 66.535C260.556 68.625 261.088 71.3933 261.235 74.84H261.345C263.031 70.8433 264.535 67.9467 265.855 66.15C267.175 64.3167 268.605 63.4 270.145 63.4C271.428 63.4 272.528 63.95 273.445 65.05C274.361 66.1133 274.82 67.6167 274.82 69.56C274.82 73.1533 272.986 77.6633 269.32 83.09C265.69 88.48 261.308 93.1733 256.175 97.17C251.078 101.167 246.458 103.165 242.315 103.165C240.811 103.165 239.656 102.853 238.85 102.23C238.006 101.643 237.585 100.873 237.585 99.92ZM258.815 94.2C262.335 90.9733 264.975 87.545 266.735 83.915C268.531 80.285 269.43 76.545 269.43 72.695C269.43 71.045 269.191 69.8167 268.715 69.01C268.238 68.2033 267.651 67.8 266.955 67.8C266.478 67.8 266.001 68.0017 265.525 68.405C265.085 68.8083 264.516 69.6333 263.82 70.88C263.16 72.09 262.316 73.905 261.29 76.325V76.93C261.29 80.12 261.07 83.2183 260.63 86.225C260.19 89.195 259.548 91.8533 258.705 94.2H258.815ZM283.355 87.215C283.978 87.215 284.62 86.83 285.28 86.06C285.94 85.29 286.692 84.1533 287.535 82.65C288.378 81.1467 289.643 78.7817 291.33 75.555L295.785 66.975C294.942 66.1683 294.19 65.545 293.53 65.105C292.87 64.665 292.173 64.445 291.44 64.445C289.973 64.445 288.415 65.3983 286.765 67.305C285.152 69.175 283.795 71.5583 282.695 74.455C281.632 77.315 281.1 80.12 281.1 82.87C281.1 84.3733 281.32 85.4733 281.76 86.17C282.2 86.8667 282.732 87.215 283.355 87.215ZM274.28 84.795C274.28 81.6417 275.343 78.3967 277.47 75.06C279.597 71.6867 282.182 68.9 285.225 66.7C288.305 64.5 291.073 63.4 293.53 63.4C294.63 63.4 295.657 63.6017 296.61 64.005C297.6 64.3717 299.122 65.0683 301.175 66.095L303.21 63.51H303.485L297.985 82.76C297.582 84.1533 297.38 85.3083 297.38 86.225C297.38 87.3617 297.747 87.93 298.48 87.93C298.92 87.93 299.378 87.6733 299.855 87.16C300.368 86.6467 301.138 85.73 302.165 84.41H302.66C300.68 87.0867 299.012 89.14 297.655 90.57C296.298 91.9633 294.923 92.66 293.53 92.66C292.613 92.66 291.862 92.2933 291.275 91.56C290.688 90.8267 290.395 89.7083 290.395 88.205C290.395 86.7383 290.707 84.96 291.33 82.87L294.575 71.65H294.08L291.88 75.885L289.68 80.175C288.067 83.365 286.783 85.7667 285.83 87.38C284.913 88.9933 283.96 90.2767 282.97 91.23C282.017 92.1833 280.99 92.66 279.89 92.66C278.937 92.66 278.02 92.3483 277.14 91.725C276.297 91.065 275.6 90.1483 275.05 88.975C274.537 87.765 274.28 86.3717 274.28 84.795ZM301.678 89.47C301.678 88.7733 301.825 87.8933 302.118 86.83H302.943C306.537 86.83 309.287 85.0883 311.193 81.605C313.137 78.1217 314.108 72.805 314.108 65.655V64.06H330.663L325.273 82.76C324.87 84.1533 324.668 85.29 324.668 86.17C324.668 87.3433 325.053 87.93 325.823 87.93C326.263 87.93 326.722 87.6733 327.198 87.16C327.712 86.6467 328.482 85.73 329.508 84.41H330.003C328.06 87.05 326.392 89.085 324.998 90.515C323.605 91.945 322.212 92.66 320.818 92.66C319.902 92.66 319.15 92.3117 318.563 91.615C318.013 90.8817 317.738 89.745 317.738 88.205C317.738 86.775 318.032 84.9967 318.618 82.87L323.843 64.665H318.013L313.283 78.085C311.413 83.4017 309.745 87.16 308.278 89.36C306.812 91.56 305.4 92.66 304.043 92.66C303.31 92.66 302.742 92.385 302.338 91.835C301.898 91.2483 301.678 90.46 301.678 89.47ZM339.799 82.32C339.212 84.41 338.919 86.1883 338.919 87.655C338.919 89.0117 339.175 90.0383 339.689 90.735C340.202 91.4317 340.899 91.78 341.779 91.78C342.879 91.78 343.942 91.2483 344.969 90.185C346.032 89.1217 346.894 87.7833 347.554 86.17C348.25 84.5567 348.599 82.9617 348.599 81.385C348.599 79.9917 348.305 78.9467 347.719 78.25C347.169 77.5533 346.435 77.205 345.519 77.205C344.052 77.205 342.384 78.0483 340.514 79.735L339.799 82.32ZM331.109 71.65C333.015 69.0467 334.684 67.03 336.114 65.6C337.58 64.1333 339.047 63.4 340.514 63.4C341.394 63.4 342.109 63.73 342.659 64.39C343.245 65.05 343.539 66.0583 343.539 67.415C343.539 68.625 343.264 70.2017 342.714 72.145L340.789 78.69H340.899C342.439 77.2233 343.96 76.05 345.464 75.17C346.967 74.2533 348.452 73.795 349.919 73.795C351.385 73.795 352.577 74.2717 353.494 75.225C354.447 76.1783 354.924 77.4433 354.924 79.02C354.924 81 354.19 83.0533 352.724 85.18C351.294 87.3067 349.424 89.085 347.114 90.515C344.804 91.945 342.457 92.66 340.074 92.66C337.837 92.66 336.132 91.9817 334.959 90.625C333.785 89.2683 333.199 87.3983 333.199 85.015C333.199 83.5483 333.455 81.8433 333.969 79.9L336.279 71.705C336.572 70.7883 336.719 69.9633 336.719 69.23C336.719 68.2767 336.389 67.8 335.729 67.8C335.179 67.8 334.61 68.1117 334.024 68.735C333.437 69.3217 332.63 70.2933 331.604 71.65H331.109ZM361.739 71.705C362.032 70.7883 362.179 69.9633 362.179 69.23C362.179 68.2767 361.849 67.8 361.189 67.8C360.639 67.8 360.071 68.1117 359.484 68.735C358.897 69.3217 358.091 70.2933 357.064 71.65H356.569C358.476 69.0467 360.144 67.03 361.574 65.6C363.041 64.1333 364.507 63.4 365.974 63.4C366.854 63.4 367.569 63.73 368.119 64.39C368.706 65.05 368.999 66.0767 368.999 67.47C368.999 68.79 368.742 70.3483 368.229 72.145L367.019 76.27H375.214L378.734 64.06H385.389L379.944 82.76C379.541 84.1533 379.339 85.29 379.339 86.17C379.339 87.3433 379.724 87.93 380.494 87.93C380.934 87.93 381.392 87.6733 381.869 87.16C382.382 86.6467 383.152 85.73 384.179 84.41H384.674C382.731 87.05 381.062 89.085 379.669 90.515C378.276 91.945 376.882 92.66 375.489 92.66C374.572 92.66 373.821 92.3117 373.234 91.615C372.684 90.8817 372.409 89.745 372.409 88.205C372.409 86.775 372.702 84.9967 373.289 82.87L375.049 76.875H366.854L362.509 92H355.854L361.739 71.705ZM399.771 75.98C404.031 75.98 407.121 76.55 409.041 77.69C410.991 78.83 411.966 80.48 411.966 82.64C411.966 84.59 411.351 86.27 410.121 87.68C408.921 89.09 407.271 90.17 405.171 90.92C403.101 91.64 400.776 92 398.196 92L394.911 91.955C393.111 91.895 391.626 91.865 390.456 91.865C387.306 91.865 384.936 91.91 383.346 92L383.526 91.1C384.606 91.04 385.416 90.92 385.956 90.74C386.496 90.56 386.916 90.215 387.216 89.705C387.546 89.195 387.861 88.37 388.161 87.23L392.886 69.41C393.156 68.45 393.291 67.73 393.291 67.25C393.291 66.59 393.066 66.155 392.616 65.945C392.166 65.735 391.371 65.6 390.231 65.54L390.456 64.64C391.926 64.73 394.281 64.775 397.521 64.775C400.551 64.775 403.011 64.73 404.901 64.64L404.676 65.54C403.566 65.6 402.741 65.72 402.201 65.9C401.691 66.08 401.271 66.425 400.941 66.935C400.641 67.445 400.341 68.27 400.041 69.41L398.286 75.98H399.771ZM396.621 90.965C399.291 90.965 401.271 90.23 402.561 88.76C403.851 87.29 404.496 85.205 404.496 82.505C404.496 80.675 404.061 79.265 403.191 78.275C402.351 77.255 400.896 76.745 398.826 76.745H398.106L395.316 87.23C395.046 88.25 394.911 88.985 394.911 89.435C394.911 89.945 395.031 90.335 395.271 90.605C395.541 90.845 395.991 90.965 396.621 90.965ZM424.341 87.23C424.071 88.37 423.936 89.105 423.936 89.435C423.936 90.065 424.146 90.485 424.566 90.695C425.016 90.905 425.826 91.04 426.996 91.1L426.816 92C425.106 91.91 422.661 91.865 419.481 91.865C416.331 91.865 413.976 91.91 412.416 92L412.641 91.1C413.691 91.04 414.471 90.92 414.981 90.74C415.521 90.56 415.941 90.215 416.241 89.705C416.571 89.165 416.886 88.34 417.186 87.23L421.911 69.41C422.151 68.39 422.271 67.67 422.271 67.25C422.271 66.59 422.046 66.155 421.596 65.945C421.176 65.735 420.396 65.6 419.256 65.54L419.481 64.64C420.951 64.73 423.306 64.775 426.546 64.775C429.546 64.775 432.006 64.73 433.926 64.64L433.701 65.54C432.591 65.6 431.766 65.72 431.226 65.9C430.716 66.08 430.296 66.425 429.966 66.935C429.666 67.445 429.366 68.27 429.066 69.41L424.341 87.23ZM432.533 82.815C432.533 79.625 433.377 76.5267 435.063 73.52C436.787 70.5133 438.987 68.075 441.663 66.205C444.377 64.335 447.145 63.4 449.968 63.4C451.472 63.4 452.608 63.73 453.378 64.39C454.185 65.0133 454.588 65.8017 454.588 66.755C454.588 68.515 453.232 70.2383 450.518 71.925C447.842 73.575 444.12 75.115 439.353 76.545C439.207 77.3883 439.133 78.36 439.133 79.46C439.133 82.2833 439.665 84.3917 440.728 85.785C441.828 87.1417 443.313 87.82 445.183 87.82C446.577 87.82 447.823 87.3433 448.923 86.39C450.06 85.4367 451.197 83.8783 452.333 81.715H452.773C451.05 85.1983 449.217 87.8933 447.273 89.8C445.33 91.7067 443.112 92.66 440.618 92.66C438.198 92.66 436.237 91.78 434.733 90.02C433.267 88.2233 432.533 85.8217 432.533 82.815ZM439.408 75.94C442.598 74.9867 445.018 73.7033 446.668 72.09C448.355 70.44 449.198 68.6983 449.198 66.865C449.198 66.0583 449.015 65.4717 448.648 65.105C448.282 64.7017 447.787 64.5 447.163 64.5C446.1 64.5 445.018 65.0317 443.918 66.095C442.855 67.1217 441.92 68.515 441.113 70.275C440.307 72.035 439.738 73.9233 439.408 75.94Z" fill="#9D0000"/>
<path d="M471.515 84.575C471.515 85.8217 471.809 86.8483 472.395 87.655C472.982 88.425 473.752 89.0117 474.705 89.415C475.695 89.7817 476.74 89.965 477.84 89.965C479.38 89.965 480.755 89.6717 481.965 89.085C483.212 88.4983 484.184 87.655 484.88 86.555C485.577 85.455 485.925 84.1167 485.925 82.54L486.585 84.19C486.585 85.8033 486.164 87.2517 485.32 88.535C484.514 89.7817 483.395 90.7717 481.965 91.505C480.572 92.2017 478.977 92.55 477.18 92.55C475.677 92.55 474.265 92.275 472.945 91.725C471.662 91.1383 470.617 90.2767 469.81 89.14C469.004 87.9667 468.6 86.4817 468.6 84.685C468.6 82.8883 469.059 81.385 469.975 80.175C470.892 78.9283 472.139 77.9933 473.715 77.37C475.292 76.71 477.07 76.38 479.05 76.38C480.59 76.38 481.892 76.5633 482.955 76.93C484.055 77.2967 484.935 77.7183 485.595 78.195C486.292 78.6717 486.787 79.075 487.08 79.405V81.165C486.054 80.395 484.899 79.79 483.615 79.35C482.369 78.8733 480.884 78.635 479.16 78.635C477.694 78.635 476.374 78.8733 475.2 79.35C474.064 79.79 473.165 80.45 472.505 81.33C471.845 82.21 471.515 83.2917 471.515 84.575ZM472.23 71.705L470.8 69.505C471.754 68.735 472.982 67.9833 474.485 67.25C476.025 66.5167 477.877 66.15 480.04 66.15C481.874 66.15 483.432 66.48 484.715 67.14C486.035 67.7633 487.044 68.6617 487.74 69.835C488.437 71.0083 488.785 72.42 488.785 74.07V92H485.925V74.07C485.925 72.3467 485.375 71.0267 484.275 70.11C483.212 69.1567 481.8 68.68 480.04 68.68C478.83 68.68 477.73 68.845 476.74 69.175C475.75 69.4683 474.87 69.8533 474.1 70.33C473.367 70.8067 472.744 71.265 472.23 71.705ZM497.495 66.7H500.355V92H497.495V66.7ZM511.19 66.7H514.875L502.94 77.15L515.92 92H512.29L499.31 77.15L511.19 66.7ZM540.858 89.305H545.258V96.95H542.728V92H521.773V66.7H524.633V89.305H537.998V66.7H540.858V89.305ZM570.949 69.175L551.589 93.925L551.864 89.525L571.224 64.775L570.949 69.175ZM554.449 66.7V89.855L551.589 93.925V66.7H554.449ZM571.224 64.775V92H568.364V68.845L571.224 64.775ZM599.363 69.175L580.003 93.925L580.278 89.525L599.638 64.775L599.363 69.175ZM582.863 66.7V89.855L580.003 93.925V66.7H582.863ZM599.638 64.775V92H596.778V68.845L599.638 64.775Z" fill="black"/>
<path d="M87.9881 100.464C85.9543 97.9795 85.5 92 85.5 92C85.5 92 84.99 97.9863 82.9365 100.464C80.8902 102.933 76 103.5 76 103.5C76 103.5 80.8953 104.135 82.9365 106.628C84.9582 109.097 85.5 115 85.5 115C85.5 115 85.986 109.103 87.9881 106.628C90.0361 104.096 95 103.5 95 103.5C95 103.5 90.0415 102.972 87.9881 100.464Z" fill="#9D0000"/>
<path d="M636.345 21.56C632.385 16.6991 631.5 5 631.5 5C631.5 5 630.507 16.7122 626.508 21.56C622.523 26.3909 613 27.5 613 27.5C613 27.5 622.533 28.7428 626.508 33.62C630.445 38.4506 631.5 50 631.5 50C631.5 50 632.447 38.4631 636.345 33.62C640.333 28.6658 650 27.5 650 27.5C650 27.5 640.344 26.4678 636.345 21.56Z" fill="#9D0000"/>
</svg>
