<svg width="723" height="76" viewBox="0 0 723 76" fill="none" xmlns="http://www.w3.org/2000/svg">
<path d="M95.0095 39.725L98.6945 38.625L109.144 2.215L106.064 1.115V0.839999H142.859V1.115L139.174 2.215L128.724 38.625L131.804 39.725V40H117.889V39.725L121.574 38.625L132.244 1.5H116.514L105.844 38.625L108.924 39.725V40H95.0095V39.725ZM162.629 21.245C162.629 24.5817 161.804 27.7533 160.154 30.76C158.541 33.73 156.414 36.1317 153.774 37.965C151.134 39.7617 148.421 40.66 145.634 40.66C142.921 40.66 140.758 39.7983 139.144 38.075C137.568 36.315 136.779 33.8767 136.779 30.76C136.779 27.35 137.586 24.16 139.199 21.19C140.849 18.1833 142.976 15.8 145.579 14.04C148.219 12.28 150.951 11.4 153.774 11.4C156.414 11.4 158.541 12.2617 160.154 13.985C161.804 15.7083 162.629 18.1283 162.629 21.245ZM143.379 31.915C143.379 34.4817 143.728 36.4433 144.424 37.8C145.158 39.1567 146.093 39.835 147.229 39.835C148.696 39.835 150.089 38.8083 151.409 36.755C152.766 34.7017 153.866 32.1167 154.709 29C155.553 25.8467 155.974 22.7483 155.974 19.705C155.974 17.2117 155.626 15.3417 154.929 14.095C154.269 12.8117 153.426 12.17 152.399 12.17C150.896 12.17 149.448 13.16 148.054 15.14C146.661 17.12 145.524 19.65 144.644 22.73C143.801 25.81 143.379 28.8717 143.379 31.915ZM169.228 19.705C169.521 18.715 169.668 17.89 169.668 17.23C169.668 16.2767 169.338 15.8 168.678 15.8C168.128 15.8 167.56 16.1117 166.973 16.735C166.386 17.3217 165.58 18.2933 164.553 19.65H164.058C165.965 17.0467 167.633 15.03 169.063 13.6C170.53 12.1333 171.996 11.4 173.463 11.4C174.343 11.4 175.058 11.73 175.608 12.39C176.158 13.05 176.433 14.0767 176.433 15.47C176.433 16.79 176.176 18.3483 175.663 20.145L171.703 33.73H172.143L174.673 28.34C177.35 22.6567 179.77 18.4217 181.933 15.635C184.096 12.8117 186.223 11.4 188.313 11.4C189.45 11.4 190.348 11.785 191.008 12.555C191.705 13.325 192.053 14.4617 192.053 15.965C192.053 17.2117 191.778 18.7517 191.228 20.585L188.038 30.76C187.598 32.08 187.378 33.1983 187.378 34.115C187.378 35.325 187.763 35.93 188.533 35.93C189.01 35.93 189.486 35.6917 189.963 35.215C190.44 34.7017 191.21 33.7667 192.273 32.41H192.768C190.788 35.0867 189.101 37.14 187.708 38.57C186.351 39.9633 184.976 40.66 183.583 40.66C182.666 40.66 181.896 40.2933 181.273 39.56C180.686 38.79 180.393 37.6533 180.393 36.15C180.393 34.72 180.705 33.015 181.328 31.035L184.738 20.145C185.031 19.155 185.178 18.4217 185.178 17.945C185.178 16.8817 184.738 16.35 183.858 16.35C182.831 16.35 181.658 17.3033 180.338 19.21C179.018 21.08 177.295 24.2883 175.168 28.835L169.943 40H163.288L169.228 19.705ZM184.078 47.92C184.078 47.1133 184.353 46.3617 184.903 45.665C185.453 44.9683 186.168 44.3817 187.048 43.905C187.598 45.555 188.404 46.9117 189.468 47.975C190.531 49.075 191.686 49.625 192.933 49.625C194.766 49.625 196.324 48.5617 197.608 46.435C198.891 44.3083 199.844 41.5583 200.468 38.185C201.091 34.8117 201.403 31.2733 201.403 27.57C201.403 24.16 201.073 21.355 200.413 19.155C199.753 16.9183 198.891 15.8 197.828 15.8C197.278 15.8 196.709 16.075 196.123 16.625C195.573 17.175 194.729 18.1833 193.593 19.65H193.098C195.261 16.68 196.984 14.5717 198.268 13.325C199.551 12.0417 200.853 11.4 202.173 11.4C203.896 11.4 205.216 12.445 206.133 14.535C207.049 16.625 207.581 19.3933 207.728 22.84H207.838C209.524 18.8433 211.028 15.9467 212.348 14.15C213.668 12.3167 215.098 11.4 216.638 11.4C217.921 11.4 219.021 11.95 219.938 13.05C220.854 14.1133 221.313 15.6167 221.313 17.56C221.313 21.1533 219.479 25.6633 215.813 31.09C212.183 36.48 207.801 41.1733 202.668 45.17C197.571 49.1667 192.951 51.165 188.808 51.165C187.304 51.165 186.149 50.8533 185.343 50.23C184.499 49.6433 184.078 48.8733 184.078 47.92ZM205.308 42.2C208.828 38.9733 211.468 35.545 213.228 31.915C215.024 28.285 215.923 24.545 215.923 20.695C215.923 19.045 215.684 17.8167 215.208 17.01C214.731 16.2033 214.144 15.8 213.448 15.8C212.971 15.8 212.494 16.0017 212.018 16.405C211.578 16.8083 211.009 17.6333 210.313 18.88C209.653 20.09 208.809 21.905 207.783 24.325V24.93C207.783 28.12 207.563 31.2183 207.123 34.225C206.683 37.195 206.041 39.8533 205.198 42.2H205.308ZM216.052 37.47C216.052 36.7733 216.199 35.8933 216.492 34.83H217.317C220.911 34.83 223.661 33.0883 225.567 29.605C227.511 26.1217 228.482 20.805 228.482 13.655V12.06H245.037L239.647 30.76C239.244 32.1533 239.042 33.29 239.042 34.17C239.042 35.3433 239.427 35.93 240.197 35.93C240.637 35.93 241.096 35.6733 241.572 35.16C242.086 34.6467 242.856 33.73 243.882 32.41H244.377C242.434 35.05 240.766 37.085 239.372 38.515C237.979 39.945 236.586 40.66 235.192 40.66C234.276 40.66 233.524 40.3117 232.937 39.615C232.387 38.8817 232.112 37.745 232.112 36.205C232.112 34.775 232.406 32.9967 232.992 30.87L238.217 12.665H232.387L227.657 26.085C225.787 31.4017 224.119 35.16 222.652 37.36C221.186 39.56 219.774 40.66 218.417 40.66C217.684 40.66 217.116 40.385 216.712 39.835C216.272 39.2483 216.052 38.46 216.052 37.47ZM239.543 39.67C240.716 39.5967 241.669 39.34 242.403 38.9C243.099 38.46 244.071 37.5067 245.318 36.04L256.648 22.29V22.235C255.071 21.905 253.806 21.355 252.853 20.585C251.936 19.815 251.478 18.825 251.478 17.615C251.478 16.4417 251.936 15.3783 252.853 14.425C253.806 13.4717 255.108 12.7383 256.758 12.225C258.408 11.675 260.241 11.4 262.258 11.4C263.981 11.4 265.503 11.565 266.823 11.895C268.143 12.225 269.793 12.7567 271.773 13.49L273.423 11.455H273.698L268.143 30.76C267.739 32.1533 267.538 33.29 267.538 34.17C267.538 35.3433 267.923 35.93 268.693 35.93C269.133 35.93 269.591 35.6733 270.068 35.16C270.581 34.6467 271.351 33.73 272.378 32.41H272.873C270.929 35.05 269.261 37.085 267.868 38.515C266.474 39.945 265.081 40.66 263.688 40.66C262.808 40.66 262.074 40.2933 261.488 39.56C260.938 38.8267 260.663 37.7083 260.663 36.205C260.663 34.775 260.956 32.9967 261.543 30.87L262.918 25.975H258.848L255.383 32.08C254.173 34.2067 253.128 35.8383 252.248 36.975C251.404 38.075 250.524 38.8633 249.608 39.34C248.728 39.78 247.664 40 246.418 40H239.543V39.67ZM256.813 19.375C256.813 21.2817 257.326 22.7667 258.353 23.83C259.379 24.8933 260.736 25.425 262.423 25.425H263.083L266.493 13.545C265.429 12.4817 264.219 11.95 262.863 11.95C261.139 11.95 259.691 12.6467 258.518 14.04C257.381 15.3967 256.813 17.175 256.813 19.375ZM289.844 4.745L287.864 11.62C288.634 11.4733 289.496 11.4 290.449 11.4C293.419 11.4 295.803 12.2983 297.599 14.095C299.396 15.855 300.294 18.3483 300.294 21.575C300.294 24.8017 299.469 27.9 297.819 30.87C296.206 33.8033 294.061 36.1683 291.384 37.965C288.744 39.7617 285.976 40.66 283.079 40.66C282.676 40.66 281.521 40.5867 279.614 40.44L276.644 51H269.934L280.164 15.25C278.551 16.2033 276.571 17.67 274.224 19.65H273.729C275.673 17.5967 277.909 15.8367 280.439 14.37L283.189 4.745H289.844ZM280.219 38.24C281.503 39.34 282.859 39.89 284.289 39.89C285.939 39.89 287.479 39.12 288.909 37.58C290.376 36.04 291.531 33.9683 292.374 31.365C293.254 28.7617 293.694 25.9567 293.694 22.95C293.694 19.7233 293.144 17.2667 292.044 15.58C290.981 13.8567 289.478 12.94 287.534 12.83L280.219 38.24ZM306.997 19.705C307.29 18.7883 307.437 17.9633 307.437 17.23C307.437 16.2767 307.107 15.8 306.447 15.8C305.897 15.8 305.328 16.1117 304.742 16.735C304.155 17.3217 303.348 18.2933 302.322 19.65H301.827C303.733 17.0467 305.402 15.03 306.832 13.6C308.298 12.1333 309.765 11.4 311.232 11.4C312.112 11.4 312.827 11.73 313.377 12.39C313.963 13.05 314.257 14.0767 314.257 15.47C314.257 16.79 314 18.3483 313.487 20.145L312.277 24.27H320.472L323.992 12.06H330.647L325.202 30.76C324.798 32.1533 324.597 33.29 324.597 34.17C324.597 35.3433 324.982 35.93 325.752 35.93C326.192 35.93 326.65 35.6733 327.127 35.16C327.64 34.6467 328.41 33.73 329.437 32.41H329.932C327.988 35.05 326.32 37.085 324.927 38.515C323.533 39.945 322.14 40.66 320.747 40.66C319.83 40.66 319.078 40.3117 318.492 39.615C317.942 38.8817 317.667 37.745 317.667 36.205C317.667 34.775 317.96 32.9967 318.547 30.87L320.307 24.875H312.112L307.767 40H301.112L306.997 19.705ZM345.352 23.624C349.707 23.624 352.865 24.2067 354.828 25.372C356.821 26.5373 357.818 28.224 357.818 30.432C357.818 32.4253 357.189 34.1427 355.932 35.584C354.705 37.0253 353.019 38.1293 350.872 38.896C348.756 39.632 346.379 40 343.742 40L340.384 39.954C338.544 39.8927 337.026 39.862 335.83 39.862C332.61 39.862 330.187 39.908 328.562 40L328.746 39.08C329.85 39.0187 330.678 38.896 331.23 38.712C331.782 38.528 332.211 38.1753 332.518 37.654C332.855 37.1327 333.177 36.2893 333.484 35.124L338.314 16.908C338.59 15.9267 338.728 15.1907 338.728 14.7C338.728 14.0253 338.498 13.5807 338.038 13.366C337.578 13.1513 336.765 13.0133 335.6 12.952L335.83 12.032C337.333 12.124 339.74 12.17 343.052 12.17C346.149 12.17 348.664 12.124 350.596 12.032L350.366 12.952C349.231 13.0133 348.388 13.136 347.836 13.32C347.315 13.504 346.885 13.8567 346.548 14.378C346.241 14.8993 345.935 15.7427 345.628 16.908L343.834 23.624H345.352ZM342.132 38.942C344.861 38.942 346.885 38.1907 348.204 36.688C349.523 35.1853 350.182 33.054 350.182 30.294C350.182 28.4233 349.737 26.982 348.848 25.97C347.989 24.9273 346.502 24.406 344.386 24.406H343.65L340.798 35.124C340.522 36.1667 340.384 36.918 340.384 37.378C340.384 37.8993 340.507 38.298 340.752 38.574C341.028 38.8193 341.488 38.942 342.132 38.942ZM370.468 35.124C370.192 36.2893 370.054 37.0407 370.054 37.378C370.054 38.022 370.269 38.4513 370.698 38.666C371.158 38.8807 371.986 39.0187 373.182 39.08L372.998 40C371.25 39.908 368.751 39.862 365.5 39.862C362.28 39.862 359.873 39.908 358.278 40L358.508 39.08C359.581 39.0187 360.379 38.896 360.9 38.712C361.452 38.528 361.881 38.1753 362.188 37.654C362.525 37.102 362.847 36.2587 363.154 35.124L367.984 16.908C368.229 15.8653 368.352 15.1293 368.352 14.7C368.352 14.0253 368.122 13.5807 367.662 13.366C367.233 13.1513 366.435 13.0133 365.27 12.952L365.5 12.032C367.003 12.124 369.41 12.17 372.722 12.17C375.789 12.17 378.303 12.124 380.266 12.032L380.036 12.952C378.901 13.0133 378.058 13.136 377.506 13.32C376.985 13.504 376.555 13.8567 376.218 14.378C375.911 14.8993 375.605 15.7427 375.298 16.908L370.468 35.124ZM378.826 30.815C378.826 27.625 379.67 24.5267 381.356 21.52C383.08 18.5133 385.28 16.075 387.956 14.205C390.67 12.335 393.438 11.4 396.261 11.4C397.765 11.4 398.901 11.73 399.671 12.39C400.478 13.0133 400.881 13.8017 400.881 14.755C400.881 16.515 399.525 18.2383 396.811 19.925C394.135 21.575 390.413 23.115 385.646 24.545C385.5 25.3883 385.426 26.36 385.426 27.46C385.426 30.2833 385.958 32.3917 387.021 33.785C388.121 35.1417 389.606 35.82 391.476 35.82C392.87 35.82 394.116 35.3433 395.216 34.39C396.353 33.4367 397.49 31.8783 398.626 29.715H399.066C397.343 33.1983 395.51 35.8933 393.566 37.8C391.623 39.7067 389.405 40.66 386.911 40.66C384.491 40.66 382.53 39.78 381.026 38.02C379.56 36.2233 378.826 33.8217 378.826 30.815ZM385.701 23.94C388.891 22.9867 391.311 21.7033 392.961 20.09C394.648 18.44 395.491 16.6983 395.491 14.865C395.491 14.0583 395.308 13.4717 394.941 13.105C394.575 12.7017 394.08 12.5 393.456 12.5C392.393 12.5 391.311 13.0317 390.211 14.095C389.148 15.1217 388.213 16.515 387.406 18.275C386.6 20.035 386.031 21.9233 385.701 23.94Z" fill="#9D0000"/>
<path d="M430.898 19.045L421.713 38.79H418.523L430.898 12.775L443.273 38.79H440.083L430.898 19.045ZM443.713 40H418.248V44.95H415.223V37.305H446.573V44.95H443.713V40ZM453.023 28.065V25.59H471.833C471.833 23.8667 471.467 22.345 470.733 21.025C470 19.6683 468.992 18.605 467.708 17.835C466.462 17.065 465.013 16.68 463.363 16.68C461.713 16.68 460.192 17.065 458.798 17.835C457.405 18.605 456.287 19.7233 455.443 21.19C454.6 22.62 454.178 24.325 454.178 26.305L454.123 27.295C454.123 29.4217 454.508 31.2917 455.278 32.905C456.048 34.4817 457.112 35.71 458.468 36.59C459.862 37.4333 461.457 37.855 463.253 37.855C464.867 37.855 466.223 37.6167 467.323 37.14C468.46 36.6267 469.413 35.985 470.183 35.215C470.99 34.4083 471.668 33.5467 472.218 32.63L474.528 34.115C473.795 35.2517 472.952 36.315 471.998 37.305C471.045 38.2583 469.853 39.0467 468.423 39.67C466.993 40.2567 465.16 40.55 462.923 40.55C460.723 40.55 458.725 39.9817 456.928 38.845C455.168 37.7083 453.775 36.1317 452.748 34.115C451.722 32.0983 451.208 29.825 451.208 27.295C451.208 26.7083 451.227 26.1583 451.263 25.645C451.337 25.095 451.428 24.545 451.538 23.995C451.978 22.0517 452.73 20.3467 453.793 18.88C454.857 17.3767 456.213 16.2217 457.863 15.415C459.513 14.5717 461.347 14.15 463.363 14.15C465.563 14.15 467.543 14.6817 469.303 15.745C471.063 16.7717 472.438 18.22 473.428 20.09C474.455 21.96 474.968 24.16 474.968 26.69C474.968 26.91 474.95 27.1483 474.913 27.405C474.913 27.625 474.895 27.845 474.858 28.065H453.023ZM482.154 27.35C482.154 29.4033 482.594 31.2183 483.474 32.795C484.354 34.3717 485.546 35.6183 487.049 36.535C488.589 37.415 490.312 37.855 492.219 37.855C493.576 37.855 494.841 37.6533 496.014 37.25C497.187 36.8467 498.196 36.3333 499.039 35.71C499.919 35.05 500.542 34.39 500.909 33.73V37.305C500.139 38.2217 498.947 38.9917 497.334 39.615C495.757 40.2383 494.052 40.55 492.219 40.55C489.762 40.55 487.562 39.9817 485.619 38.845C483.676 37.7083 482.117 36.15 480.944 34.17C479.807 32.1533 479.239 29.88 479.239 27.35C479.239 24.7833 479.807 22.51 480.944 20.53C482.117 18.55 483.676 16.9917 485.619 15.855C487.562 14.7183 489.762 14.15 492.219 14.15C494.052 14.15 495.757 14.48 497.334 15.14C498.947 15.7633 500.139 16.515 500.909 17.395V20.97C500.542 20.2733 499.919 19.6133 499.039 18.99C498.196 18.3667 497.187 17.8533 496.014 17.45C494.841 17.0467 493.576 16.845 492.219 16.845C490.312 16.845 488.589 17.3033 487.049 18.22C485.546 19.1 484.354 20.3283 483.474 21.905C482.594 23.4817 482.154 25.2967 482.154 27.35ZM507.594 28.065V25.59H526.404C526.404 23.8667 526.037 22.345 525.304 21.025C524.57 19.6683 523.562 18.605 522.279 17.835C521.032 17.065 519.584 16.68 517.934 16.68C516.284 16.68 514.762 17.065 513.369 17.835C511.975 18.605 510.857 19.7233 510.014 21.19C509.17 22.62 508.749 24.325 508.749 26.305L508.694 27.295C508.694 29.4217 509.079 31.2917 509.849 32.905C510.619 34.4817 511.682 35.71 513.039 36.59C514.432 37.4333 516.027 37.855 517.824 37.855C519.437 37.855 520.794 37.6167 521.894 37.14C523.03 36.6267 523.984 35.985 524.754 35.215C525.56 34.4083 526.239 33.5467 526.789 32.63L529.099 34.115C528.365 35.2517 527.522 36.315 526.569 37.305C525.615 38.2583 524.424 39.0467 522.994 39.67C521.564 40.2567 519.73 40.55 517.494 40.55C515.294 40.55 513.295 39.9817 511.499 38.845C509.739 37.7083 508.345 36.1317 507.319 34.115C506.292 32.0983 505.779 29.825 505.779 27.295C505.779 26.7083 505.797 26.1583 505.834 25.645C505.907 25.095 505.999 24.545 506.109 23.995C506.549 22.0517 507.3 20.3467 508.364 18.88C509.427 17.3767 510.784 16.2217 512.434 15.415C514.084 14.5717 515.917 14.15 517.934 14.15C520.134 14.15 522.114 14.6817 523.874 15.745C525.634 16.7717 527.009 18.22 527.999 20.09C529.025 21.96 529.539 24.16 529.539 26.69C529.539 26.91 529.52 27.1483 529.484 27.405C529.484 27.625 529.465 27.845 529.429 28.065H507.594ZM538.869 52.1H536.009V14.7H538.869V52.1ZM560.484 27.35C560.484 30.0633 559.934 32.41 558.834 34.39C557.771 36.37 556.304 37.8917 554.434 38.955C552.601 40.0183 550.548 40.55 548.274 40.55C546.148 40.55 544.278 39.9817 542.664 38.845C541.051 37.6717 539.786 36.095 538.869 34.115C537.989 32.0983 537.549 29.8433 537.549 27.35C537.549 24.82 537.989 22.565 538.869 20.585C539.786 18.605 541.051 17.0467 542.664 15.91C544.278 14.7367 546.148 14.15 548.274 14.15C550.548 14.15 552.601 14.6817 554.434 15.745C556.304 16.8083 557.771 18.33 558.834 20.31C559.934 22.2533 560.484 24.6 560.484 27.35ZM557.624 27.35C557.624 25.15 557.184 23.2617 556.304 21.685C555.424 20.1083 554.251 18.9167 552.784 18.11C551.318 17.2667 549.686 16.845 547.889 16.845C546.349 16.845 544.883 17.3033 543.489 18.22C542.096 19.1367 540.978 20.3833 540.134 21.96C539.291 23.5367 538.869 25.3333 538.869 27.35C538.869 29.3667 539.291 31.1633 540.134 32.74C540.978 34.3167 542.096 35.5633 543.489 36.48C544.883 37.3967 546.349 37.855 547.889 37.855C549.686 37.855 551.318 37.4517 552.784 36.645C554.251 35.8017 555.424 34.5917 556.304 33.015C557.184 31.4383 557.624 29.55 557.624 27.35ZM563.582 14.7H578.432V17.395H563.582V14.7ZM569.577 15.47H572.437V40H569.577V15.47ZM605.122 14.7H607.982V40H605.122V14.7ZM582.847 14.7H585.707V40H582.847V14.7ZM584.442 26.8V24.27H591.757C594.36 24.27 596.542 24.9117 598.302 26.195C600.098 27.4417 600.997 29.4217 600.997 32.135C600.997 33.9317 600.593 35.4167 599.787 36.59C598.98 37.7633 597.88 38.625 596.487 39.175C595.093 39.725 593.517 40 591.757 40H584.442V37.47H591.757C593.04 37.47 594.158 37.2867 595.112 36.92C596.065 36.5167 596.798 35.93 597.312 35.16C597.862 34.3533 598.137 33.345 598.137 32.135C598.137 30.375 597.55 29.055 596.377 28.175C595.24 27.2583 593.7 26.8 591.757 26.8H584.442Z" fill="black"/>
</svg>
