<svg width="18" height="19" viewBox="0 0 18 19" fill="none" xmlns="http://www.w3.org/2000/svg">
<path d="M3.99954 3.27778H17.0664L15.2886 9.5H4.95682M16.1775 13.0556H5.51085L3.73307 1.5H1.06641M6.39974 16.6111C6.39974 17.102 6.00177 17.5 5.51085 17.5C5.01994 17.5 4.62196 17.102 4.62196 16.6111C4.62196 16.1202 5.01994 15.7222 5.51085 15.7222C6.00177 15.7222 6.39974 16.1202 6.39974 16.6111ZM16.1775 16.6111C16.1775 17.102 15.7796 17.5 15.2886 17.5C14.7977 17.5 14.3997 17.102 14.3997 16.6111C14.3997 16.1202 14.7977 15.7222 15.2886 15.7222C15.7796 15.7222 16.1775 16.1202 16.1775 16.6111Z" stroke="#330707" stroke-width="1.5" stroke-linecap="round" stroke-linejoin="round"/>
</svg>
